<svg width="1771" height="811" viewBox="0 0 1771 811" fill="none" xmlns="http://www.w3.org/2000/svg">
 

<path d="M1770.12 410.876C1770.12 464.976 1745.44 516.552 1700.71 563.505C1655.99 610.461 1591.25 652.77 1511.21 688.312C1351.13 759.397 1129.96 803.376 885.623 803.376C641.29 803.376 420.112 759.397 260.036 688.312C179.998 652.77 115.257 610.461 70.5328 563.505C25.8109 516.552 1.12305 464.976 1.12305 410.876C1.12305 356.777 25.8109 305.201 70.5328 258.248C115.257 211.292 179.998 168.983 260.036 133.44C420.112 62.3559 641.29 18.3765 885.623 18.3765C1129.96 18.3765 1351.13 62.3559 1511.21 133.44C1591.25 168.983 1655.99 211.292 1700.71 258.248C1745.44 305.201 1770.12 356.777 1770.12 410.876Z" stroke="#E7E8E4" stroke-opacity="0.85"/>
<path d="M1768.02 468.863C1764.71 522.821 1736.91 572.633 1689.4 616.51C1641.88 660.39 1574.68 698.313 1492.62 728.477C1328.51 788.803 1105.08 818.059 861.243 801.92C617.403 785.781 399.369 727.306 243.975 645.832C166.278 605.095 104.262 558.619 62.5074 508.831C20.755 459.045 -0.720167 405.972 2.5972 352.014C5.91458 298.055 33.7151 248.244 81.2259 204.366C128.739 160.486 195.944 122.563 278 92.3999C442.112 32.0733 665.54 2.81749 909.379 18.9566C1153.22 35.0957 1371.25 93.5707 1526.65 175.045C1604.34 215.782 1666.36 262.258 1708.11 312.046C1749.87 361.831 1771.34 414.904 1768.02 468.863Z" stroke="#E7E8E4" stroke-opacity="0.85"/>
<circle cx="1617" cy="231" r="10" fill="#0067F0"/>
<circle cx="590" cy="762" r="10" fill="#BFF000"/>
<circle cx="896" cy="18" r="10" fill="#F2F2F2"/>
<path d="M1317.6 785.307C1314.12 781.83 1314.12 776.188 1317.6 772.693C1323.47 766.821 1323.47 757.276 1317.6 751.404C1311.72 745.532 1302.18 745.532 1296.31 751.404C1292.83 754.881 1287.19 754.881 1283.69 751.404C1277.82 745.532 1268.28 745.532 1262.4 751.404C1256.53 757.276 1256.53 766.821 1262.4 772.693C1265.88 776.17 1265.88 781.812 1262.4 785.307C1256.53 791.179 1256.53 800.724 1262.4 806.596C1268.28 812.468 1277.82 812.468 1283.69 806.596C1287.17 803.119 1292.81 803.119 1296.31 806.596C1302.18 812.468 1311.72 812.468 1317.6 806.596C1323.47 800.724 1323.47 791.197 1317.6 785.307Z" fill="#EFF0F1"/>
<path d="M474 62.5C454.469 56.0801 439.177 31.4659 435.196 0C432.361 22.4263 423.77 41.3692 412 52.7407C400.23 41.3692 391.639 22.4551 388.804 0C384.823 31.4659 369.531 56.0801 350 62.5C369.531 68.9199 384.823 93.5341 388.804 125C391.639 102.574 400.23 83.6308 412 72.2593C423.77 83.6308 432.361 102.545 435.196 125C439.177 93.5341 454.469 68.9199 474 62.5Z" fill="#EFF0F1"/>
</svg>
 