<svg width="24" height="25" viewBox="0 0 24 25" fill="none" xmlns="http://www.w3.org/2000/svg">
<path d="M14.4291 19.7781C14.2391 19.7781 14.0491 19.7081 13.8991 19.5581C13.6091 19.2681 13.6091 18.7881 13.8991 18.4981L19.4391 12.9581L13.8991 7.41812C13.6091 7.12812 13.6091 6.64812 13.8991 6.35813C14.1891 6.06813 14.6691 6.06813 14.9591 6.35813L21.0291 12.4281C21.3191 12.7181 21.3191 13.1981 21.0291 13.4881L14.9591 19.5581C14.8091 19.7081 14.6191 19.7781 14.4291 19.7781Z" fill="#292D32"/>
<path d="M20.33 13.708H3.5C3.09 13.708 2.75 13.368 2.75 12.958C2.75 12.548 3.09 12.208 3.5 12.208H20.33C20.74 12.208 21.08 12.548 21.08 12.958C21.08 13.368 20.74 13.708 20.33 13.708Z" fill="#292D32"/>
</svg>
