<svg width="27" height="27" viewBox="0 0 27 27" fill="none" xmlns="http://www.w3.org/2000/svg">
    <path d="M16.2335 21.1728C16.0198 21.1728 15.806 21.094 15.6373 20.9253C15.311 20.599 15.311 20.059 15.6373 19.7328L21.8698 13.5003L15.6373 7.26775C15.311 6.9415 15.311 6.4015 15.6373 6.07525C15.9635 5.749 16.5035 5.749 16.8298 6.07525L23.6585 12.904C23.9848 13.2303 23.9848 13.7703 23.6585 14.0965L16.8298 20.9253C16.661 21.094 16.4473 21.1728 16.2335 21.1728Z" fill="#292D32"/>
    <path d="M22.8712 14.3438H3.9375C3.47625 14.3438 3.09375 13.9612 3.09375 13.5C3.09375 13.0388 3.47625 12.6562 3.9375 12.6562H22.8712C23.3325 12.6562 23.715 13.0388 23.715 13.5C23.715 13.9612 23.3325 14.3438 22.8712 14.3438Z" fill="#292D32"/>
    </svg>
    