<svg width="51" height="48" viewBox="0 0 51 48" fill="none" xmlns="http://www.w3.org/2000/svg">
    <path d="M25.9446 7.23905L29.8892 1.47068C31.767 -1.28516 36.0764 0.119777 35.9953 3.45651L35.8062 10.4407L42.3851 8.10363C45.5192 6.98237 48.194 10.6568 46.1541 13.2911L41.8988 18.8298L48.5993 20.8021C51.8009 21.7478 51.8009 26.2733 48.5993 27.2189L41.8853 29.1912L46.1406 34.73C48.1805 37.3777 45.5057 41.0387 42.3716 39.9174L35.8062 37.5669L35.9953 44.551C36.0899 47.8878 31.7805 49.2792 29.8892 46.5369L25.9446 40.7685L21.9999 46.5369C20.1222 49.2927 15.8128 47.8878 15.8938 44.551L16.083 37.5669L9.50407 39.9039C6.36997 41.0252 3.69518 37.3507 5.73504 34.7164L9.99039 29.1777L3.28991 27.2054C0.0882608 26.2598 0.0882608 21.7343 3.28991 20.7886L9.99039 18.8163L5.73504 13.2776C3.69518 10.6298 6.36997 6.96886 9.50407 8.09012L16.083 10.4272L15.8938 3.443C15.7993 0.106268 20.1087 -1.28516 21.9999 1.45717L25.9446 7.23905Z" fill="#383837"/>
    </svg>
    