<svg width="27" height="27" viewBox="0 0 27 27" fill="none" xmlns="http://www.w3.org/2000/svg">
<path d="M10.3059 13.0725C10.2721 13.0725 10.2496 13.0725 10.2159 13.0725C10.1596 13.0612 10.0809 13.0612 10.0134 13.0725C6.75086 12.9712 4.28711 10.4062 4.28711 7.245C4.28711 4.0275 6.90836 1.40625 10.1259 1.40625C13.3434 1.40625 15.9646 4.0275 15.9646 7.245C15.9534 10.4062 13.4784 12.9712 10.3396 13.0725C10.3284 13.0725 10.3171 13.0725 10.3059 13.0725ZM10.1259 3.09375C7.84211 3.09375 5.97461 4.96125 5.97461 7.245C5.97461 9.495 7.72961 11.3062 9.96836 11.385C10.0359 11.3737 10.1821 11.3737 10.3284 11.385C12.5334 11.2837 14.2659 9.4725 14.2771 7.245C14.2771 4.96125 12.4096 3.09375 10.1259 3.09375Z" fill="#292D32"/>
<path d="M18.6081 13.2188C18.5744 13.2188 18.5406 13.2187 18.5069 13.2075C18.0456 13.2525 17.5731 12.9262 17.5281 12.465C17.4831 12.0037 17.7644 11.5875 18.2256 11.5312C18.3606 11.52 18.5069 11.52 18.6306 11.52C20.2731 11.43 21.5556 10.08 21.5556 8.42625C21.5556 6.71625 20.1719 5.3325 18.4619 5.3325C18.0006 5.34375 17.6181 4.96125 17.6181 4.5C17.6181 4.03875 18.0006 3.65625 18.4619 3.65625C21.0944 3.65625 23.2431 5.805 23.2431 8.4375C23.2431 11.025 21.2181 13.1175 18.6419 13.2188C18.6306 13.2188 18.6194 13.2188 18.6081 13.2188Z" fill="#292D32"/>
<path d="M10.3151 25.3687C8.11008 25.3687 5.89383 24.8062 4.21758 23.6812C2.65383 22.6462 1.79883 21.2287 1.79883 19.6875C1.79883 18.1462 2.65383 16.7175 4.21758 15.6713C7.59258 13.4325 13.0601 13.4325 16.4126 15.6713C17.9651 16.7063 18.8313 18.1237 18.8313 19.665C18.8313 21.2062 17.9763 22.635 16.4126 23.6812C14.7251 24.8062 12.5201 25.3687 10.3151 25.3687ZM5.15133 17.0887C4.07133 17.8087 3.48633 18.7312 3.48633 19.6987C3.48633 20.655 4.08258 21.5775 5.15133 22.2862C7.95258 24.165 12.6776 24.165 15.4788 22.2862C16.5588 21.5662 17.1438 20.6437 17.1438 19.6762C17.1438 18.72 16.5476 17.7975 15.4788 17.0887C12.6776 15.2212 7.95258 15.2212 5.15133 17.0887Z" fill="#292D32"/>
<path d="M20.6324 23.3438C20.2387 23.3438 19.8899 23.0738 19.8112 22.6688C19.7212 22.2075 20.0137 21.7688 20.4637 21.6675C21.1724 21.5213 21.8249 21.24 22.3312 20.8463C22.9724 20.3625 23.3212 19.755 23.3212 19.1138C23.3212 18.4725 22.9724 17.865 22.3424 17.3925C21.8474 17.01 21.2287 16.74 20.4974 16.5713C20.0474 16.47 19.7549 16.02 19.8562 15.5588C19.9574 15.1088 20.4074 14.8163 20.8687 14.9175C21.8362 15.1313 22.6799 15.5138 23.3662 16.0425C24.4124 16.83 25.0087 17.9438 25.0087 19.1138C25.0087 20.2838 24.4012 21.3975 23.3549 22.1963C22.6574 22.7363 21.7799 23.13 20.8124 23.3213C20.7449 23.3438 20.6887 23.3438 20.6324 23.3438Z" fill="#292D32"/>
</svg>
