<svg width="48" height="48" viewBox="0 0 48 48" fill="none" xmlns="http://www.w3.org/2000/svg">
    <path d="M7.02259 7.02246C2.68583 11.3715 0 17.3715 0 23.9999C0 30.6282 2.68583 36.6282 7.02259 40.9773C12.5421 35.0882 12.5421 12.9116 7.02259 7.02246Z" fill="#383837"/>
    <path d="M40.9783 7.02259C36.6292 2.68583 30.6292 0 24.0009 0C17.3725 0 11.3725 2.68583 7.02344 7.02259C12.9126 12.5421 35.0891 12.5421 40.9783 7.02259Z" fill="#383837"/>
    <path d="M40.9775 40.9773C45.3143 36.6282 48.0001 30.6282 48.0001 23.9999C48.0001 17.3715 45.3143 11.3715 40.9775 7.02246C35.458 12.9116 35.458 35.0882 40.9775 40.9773Z" fill="#383837"/>
    <path d="M7.02344 40.9775C11.3725 45.3143 17.3725 48.0001 24.0009 48.0001C30.6292 48.0001 36.6292 45.3143 40.9783 40.9775C35.0891 35.458 12.9126 35.458 7.02344 40.9775Z" fill="#383837"/>
    </svg>
    