<svg width="743" height="1080" viewBox="0 0 743 1080" fill="none" xmlns="http://www.w3.org/2000/svg">
    <g opacity="0.05">
    <path d="M-294.055 603.314C-206.62 644.18 -52.5166 524.963 -26.8484 433.09C2.88643 326.866 -196.304 216.463 -232.528 195.031C-258.909 179.506 -205.554 363.276 -285.093 425.434C-369.934 491.72 -473.35 439.018 -466.076 456.761C-466.297 476.153 -398.284 554.626 -294.055 603.314Z" stroke="white" stroke-width="1.2525" stroke-miterlimit="10"/>
    <path d="M-284.785 624.951C-192.142 677.307 -20.3992 535.887 4.93012 432.815C34.7225 311.897 -181.006 193.647 -229.894 174.719C-260.523 162.87 -220.756 345.189 -307.238 420.941C-398.258 500.653 -503.287 467.69 -482.487 480.789C-473.038 496.638 -396.544 561.739 -284.785 624.951Z" stroke="white" stroke-width="1.2525" stroke-miterlimit="10"/>
    <path d="M-275.426 646.494C-177.563 710.265 11.7456 546.72 36.891 432.535C66.783 296.845 -171.245 185.079 -227.093 154.417C-258.447 137.227 -235.809 327.036 -329.246 416.459C-426.429 509.611 -531.127 490.857 -498.744 504.841C-478.013 513.812 -394.763 568.746 -275.426 646.494Z" stroke="white" stroke-width="1.2525" stroke-miterlimit="10"/>
    <path d="M-266.131 668.069C-162.96 743.189 43.8415 557.567 68.7425 432.272C98.6724 281.782 -177.263 193.11 -224.329 134.023C-248.747 103.436 -250.961 308.764 -351.305 411.931C-454.826 518.304 -562.205 519.848 -515.025 528.817C-485.733 534.474 -392.958 575.689 -266.131 668.069Z" stroke="white" stroke-width="1.2525" stroke-miterlimit="10"/>
    <path d="M-256.803 689.642C-148.339 776.098 75.8532 568.479 100.628 432.007C130.536 266.721 -171.98 186 -221.661 113.8C-245.962 78.4716 -266.195 290.617 -373.43 407.542C-483.253 527.286 -592.716 549.24 -531.415 552.949C-492.96 555.267 -391.12 582.6 -256.803 689.642Z" stroke="white" stroke-width="1.2525" stroke-miterlimit="10"/>
    <path d="M-247.486 711.234C-133.687 808.978 107.906 579.257 132.5 431.732C162.432 251.692 -167.085 178.971 -218.934 93.487C-243.255 53.4083 -281.46 272.414 -395.526 403.065C-511.642 536.074 -622.869 578.498 -547.748 576.991C-499.974 576.054 -389.206 589.496 -247.486 711.234Z" stroke="white" stroke-width="1.2525" stroke-miterlimit="10"/>
    <path d="M-238.175 732.824C-119.025 841.84 139.99 590.151 164.366 431.454C194.292 236.631 -162.425 171.903 -216.197 73.1557C-240.631 28.2702 -296.702 254.146 -417.598 398.584C-540.049 544.874 -652.865 607.641 -564.085 601.03C-506.843 596.802 -387.33 596.331 -238.175 732.824Z" stroke="white" stroke-width="1.2525" stroke-miterlimit="10"/>
    <path d="M-228.847 754.398C-104.21 874.696 172.014 601.018 196.221 431.192C226.157 221.631 -158.046 164.893 -213.502 52.8718C-238.126 3.13739 -311.985 235.926 -439.695 394.135C-568.499 553.692 -682.861 636.724 -580.433 625.116C-513.651 617.517 -385.39 603.164 -228.847 754.398Z" stroke="white" stroke-width="1.2525" stroke-miterlimit="10"/>
    <path d="M-219.533 775.988C-89.6225 907.547 204.069 611.915 228.09 430.914C257.941 206.529 -153.84 157.755 -210.778 32.5568C-235.655 -22.0542 -327.286 217.662 -461.795 389.656C-596.965 562.495 -712.722 665.786 -596.769 649.156C-520.414 638.215 -383.421 609.995 -219.533 775.988Z" stroke="white" stroke-width="1.2525" stroke-miterlimit="10"/>
    <path d="M-210.219 797.579C-74.9127 940.393 236.031 622.725 259.96 430.638C289.744 191.472 -149.613 150.722 -208.096 12.2896C-233.212 -47.2439 -342.554 199.397 -483.921 385.239C-625.459 571.33 -742.628 694.836 -613.146 673.244C-527.177 658.884 -381.451 616.827 -210.219 797.579Z" stroke="white" stroke-width="1.2525" stroke-miterlimit="10"/>
    <path d="M-200.893 819.152C-60.1764 973.236 268.095 633.513 291.812 430.374C321.543 176.413 -145.53 143.587 -205.361 -8.07286C-230.792 -72.5408 -357.902 181.148 -505.994 380.727C-654.086 580.306 -772.45 723.789 -629.498 697.298C-533.913 679.55 -379.455 623.625 -200.893 819.152Z" stroke="white" stroke-width="1.2525" stroke-miterlimit="10"/>
    <path d="M-191.58 840.741C-45.438 1006.08 300.03 644.444 323.696 430.111C353.403 161.292 -141.465 136.348 -202.621 -28.3738C-228.385 -97.8208 -373.217 162.899 -528.078 376.262C-682.38 588.889 -802.287 752.729 -645.789 721.321C-540.633 700.201 -377.471 630.441 -191.58 840.741Z" stroke="white" stroke-width="1.2525" stroke-miterlimit="10"/>
    <path d="M-182.263 862.333C-30.6955 1038.93 331.617 655.256 355.522 429.792C384.571 146.203 -137.635 129.182 -199.955 -48.7149C-226.036 -123.157 -388.591 144.595 -550.205 371.755C-710.905 597.637 -832.18 781.643 -662.182 745.335C-547.349 720.854 -375.423 637.256 -182.263 862.333Z" stroke="white" stroke-width="1.2525" stroke-miterlimit="10"/>
    <path d="M-172.938 883.906C-15.9456 1071.75 363.637 666.122 387.405 429.588C416.492 131.169 -133.746 122.131 -197.216 -68.9566C-223.661 -148.406 -403.907 126.405 -572.303 367.396C-739.431 606.532 -862.016 810.672 -678.546 769.495C-554.072 741.503 -373.413 644.068 -172.938 883.906Z" stroke="white" stroke-width="1.2525" stroke-miterlimit="10"/>
    <path d="M-163.624 905.495C-1.11291 1104.65 395.692 676.988 419.29 429.294C448.239 116.234 -129.758 114.82 -194.476 -89.2883C-221.319 -173.835 -419.629 107.81 -594.342 362.883C-768.29 614.973 -891.793 839.548 -694.823 793.471C-560.776 762.138 -371.368 650.881 -163.624 905.495Z" stroke="white" stroke-width="1.2525" stroke-miterlimit="10"/>
    <path d="M-154.311 927.084C13.9576 1137.13 427.746 687.852 451.158 429.015C480.173 101.094 -125.89 107.573 -191.769 -109.619C-218.912 -199.116 -434.882 89.6176 -616.443 358.402C-796.709 623.818 -921.601 868.456 -711.158 817.54C-567.482 782.772 -368.856 657.309 -154.311 927.084Z" stroke="white" stroke-width="1.2525" stroke-miterlimit="10"/>
    <path d="M-144.981 948.661C28.6406 1170.04 459.756 698.708 483.029 428.74C512.038 86.0671 -122.049 100.332 -189.042 -129.931C-216.551 -224.467 -450.176 71.4466 -638.524 353.94C-825.126 632.668 -951.436 897.368 -727.49 841.583C-574.066 803.375 -366.912 664.205 -144.981 948.661Z" stroke="white" stroke-width="1.2525" stroke-miterlimit="10"/>
    <path d="M-135.667 970.251C43.3214 1202.95 491.826 709.588 514.883 428.478C543.843 71.0698 -118.228 93.0432 -186.333 -150.231C-214.207 -249.835 -465.479 53.1217 -660.565 349.428C-853.422 641.539 -981.107 926.634 -743.797 865.591C-580.803 824.33 -364.985 671.114 -135.667 970.251Z" stroke="white" stroke-width="1.2525" stroke-miterlimit="10"/>
    <path d="M-126.356 991.84C57.9563 1235.9 523.939 720.48 546.75 428.199C575.731 55.9768 -114.409 85.7532 -183.669 -170.485C-211.926 -275.171 -480.728 35.0505 -682.768 345.058C-881.98 650.375 -1011.01 955.364 -760.193 889.693C-587.533 844.798 -363.02 677.914 -126.356 991.84Z" stroke="white" stroke-width="1.2525" stroke-miterlimit="10"/>
    <path d="M-776.511 913.748C-594.273 865.285 -361.102 684.929 -117.027 1013.41C72.6977 1268.78 555.919 731.335 578.636 427.936C607.595 40.9171 -110.586 78.4649 -180.9 -190.847C-237.741 -408.649 -1309.46 1055.5 -776.511 913.748Z" stroke="white" stroke-width="1.2525" stroke-miterlimit="10"/>
    </g>
    </svg>
    