<svg width="1211" height="1431" viewBox="0 0 1211 1431" fill="none" xmlns="http://www.w3.org/2000/svg">
<path d="M714.94 643.051C644.907 681.713 607.15 814.799 635.277 882.838C666.352 957.972 860.662 946.559 882.958 928.239C905.254 909.918 722.976 851.293 747.849 782.16C775.474 705.424 914.185 705.319 910.408 672.553C906.695 640.313 795.892 598.366 714.94 643.051Z" stroke="#EFF0F1" stroke-width="2" stroke-miterlimit="10"/>
<path d="M693.018 633.596C610.931 667.289 575.314 828.382 611.498 904.275C652.509 990.234 863.612 958.373 894.949 944.769C921.962 933.061 746.607 854.22 767.571 770.683C790.326 679.924 915.433 665.183 906.086 644.125C896.041 621.551 789.343 594.155 693.018 633.596Z" stroke="#EFF0F1" stroke-width="2" stroke-miterlimit="10"/>
<path d="M671.092 624.163C577.081 652.781 543.539 841.944 587.716 925.692C638.751 1022.56 864.878 969.914 906.937 961.322C937.51 955.005 770.387 857.254 787.267 759.166C805.283 654.55 919.494 623.868 901.762 615.845C888.528 601.631 783.14 590.028 671.092 624.163Z" stroke="#EFF0F1" stroke-width="2" stroke-miterlimit="10"/>
<path d="M649.169 614.645C543.3 638.398 511.833 855.422 564.002 947.066C625.147 1054.63 869.138 996.657 918.993 977.81C950.221 965.997 794.323 860.244 807.032 747.668C820.418 629.196 922.203 583.121 897.505 587.48C879.445 582.279 776.918 586.027 649.169 614.645Z" stroke="#EFF0F1" stroke-width="2" stroke-miterlimit="10"/>
<path d="M627.241 605.253C509.558 624.205 480.165 868.983 540.153 968.566C611.43 1086.91 867.715 1009.38 930.913 994.404C966.377 985.981 818.188 863.381 826.683 736.255C835.418 603.926 927.135 547.765 893.112 559.199C871.319 566.507 770.735 582.132 627.241 605.253Z" stroke="#EFF0F1" stroke-width="2" stroke-miterlimit="10"/>
<path d="M605.34 595.797C475.821 610.054 448.524 882.501 516.374 989.981C597.849 1119.09 866.691 999.541 942.926 1011.04C982.43 1016.96 842.211 866.539 846.404 724.841C850.771 578.698 930.478 506.027 888.791 530.96C862.848 546.374 764.579 578.298 605.34 595.797Z" stroke="#EFF0F1" stroke-width="2" stroke-miterlimit="10"/>
<path d="M583.417 586.364C442.085 595.924 416.906 895.915 492.573 1011.42C584.291 1151.24 867.632 1008.22 954.895 1027.49C997.587 1036.92 866.213 869.551 866.082 713.28C865.951 553.239 933.123 464.375 884.447 502.532C853.918 526.475 758.423 574.508 583.417 586.364Z" stroke="#EFF0F1" stroke-width="2" stroke-miterlimit="10"/>
<path d="M561.487 576.909C408.341 581.836 385.346 909.456 468.787 1032.86C570.681 1183.4 868.806 1016.58 966.879 1044.04C1012.87 1056.9 890.273 872.583 885.796 701.804C881.232 527.949 935.585 423.059 880.118 474.209C844.829 506.723 752.216 570.781 561.487 576.909Z" stroke="#EFF0F1" stroke-width="2" stroke-miterlimit="10"/>
<path d="M539.565 567.454C374.605 567.77 353.684 922.933 445.009 1054.29C557.123 1215.55 870.185 1024.81 978.871 1060.61C1028.27 1076.89 914.363 875.679 905.496 690.348C896.521 502.637 938.013 381.933 875.797 445.886C835.66 487.097 746.083 567.075 539.565 567.454Z" stroke="#EFF0F1" stroke-width="2" stroke-miterlimit="10"/>
<path d="M517.64 558.02C340.756 553.808 322.085 936.389 421.228 1075.71C543.518 1247.67 871.735 1032.81 990.859 1077.12C1043.75 1096.79 938.449 878.711 925.194 678.85C911.829 477.284 940.48 340.849 871.451 417.521C826.466 467.534 739.902 563.411 517.64 558.02Z" stroke="#EFF0F1" stroke-width="2" stroke-miterlimit="10"/>
<path d="M495.715 548.565C307.083 539.699 290.442 949.845 397.446 1097.15C530.044 1279.8 873.504 1040.79 1002.85 1093.67C1059.3 1116.71 962.579 881.765 944.913 667.374C927.159 451.93 942.86 299.871 867.127 389.198C817.25 448.013 733.7 559.768 495.715 548.565Z" stroke="#EFF0F1" stroke-width="2" stroke-miterlimit="10"/>
<path d="M473.79 539.109C273.321 525.674 258.93 963.301 373.665 1118.58C516.526 1311.92 875.185 1048.71 1014.84 1110.16C1074.87 1136.61 986.687 884.839 964.61 655.834C942.488 426.534 945.283 258.87 862.803 360.812C808.057 428.513 727.498 556.124 473.79 539.109Z" stroke="#EFF0F1" stroke-width="2" stroke-miterlimit="10"/>
<path d="M451.868 529.675C239.542 511.671 227.356 976.841 349.886 1140C503.011 1344.03 877.044 1056.61 1026.85 1126.75C1090.53 1156.57 1010.84 887.85 984.332 644.399C957.821 400.948 947.71 217.997 858.482 332.468C798.844 409.034 721.299 552.523 451.868 529.675Z" stroke="#EFF0F1" stroke-width="2" stroke-miterlimit="10"/>
<path d="M429.943 520.22C205.759 497.667 195.779 990.191 326.083 1161.43C489.493 1376.23 878.987 1064.57 1038.82 1143.3C1106.18 1176.51 1034.97 890.882 1004.03 632.922C973.172 375.868 950.156 177.123 854.136 304.186C789.628 389.576 715.097 548.901 429.943 520.22Z" stroke="#EFF0F1" stroke-width="2" stroke-miterlimit="10"/>
<path d="M408.015 510.765C171.973 483.664 164.549 1003.4 302.365 1182.87C476.476 1407.94 881.059 1072.32 1050.87 1159.83C1121.93 1196.45 1059.19 893.915 1023.79 621.446C988.587 350.515 952.664 136.229 849.875 275.843C780.41 370.119 708.849 545.322 408.015 510.765Z" stroke="#EFF0F1" stroke-width="2" stroke-miterlimit="10"/>
<path d="M386.091 501.331C138.191 469.681 132.95 1016.85 278.519 1204.27C462.85 1440.12 883.004 1080.02 1062.79 1176.34C1137.59 1216.35 1083.28 896.905 1043.42 609.885C1003.9 325.055 955.045 95.2919 845.487 247.414C771.195 350.662 702.626 541.72 386.091 501.331Z" stroke="#EFF0F1" stroke-width="2" stroke-miterlimit="10"/>
<path d="M364.166 491.876C104.3 455.699 101.33 1030.33 254.739 1225.72C449.289 1472.1 885.057 1087.98 1074.78 1192.92C1153.4 1236.36 1107.95 899.916 1063.12 598.472C1019.77 299.702 957.492 54.5028 841.163 219.176C761.98 331.225 696.38 538.141 364.166 491.876Z" stroke="#EFF0F1" stroke-width="2" stroke-miterlimit="10"/>
<path d="M342.244 482.422C70.5196 442.181 69.7116 1043.81 230.96 1247.16C435.73 1504.36 887.155 1095.82 1086.79 1209.47C1169.06 1256.3 1132 902.95 1082.84 586.996C1035.04 274.349 959.94 13.6724 836.82 190.833C752.767 311.79 690.05 535.151 342.244 482.422Z" stroke="#EFF0F1" stroke-width="2" stroke-miterlimit="10"/>
<path d="M320.314 472.988C36.732 428.092 38.1296 1057.26 207.174 1268.6C422.142 1536.5 889.268 1103.63 1098.78 1226.02C1184.8 1276.26 1156.06 905.939 1102.53 575.519C1050.3 248.994 962.402 -27.1808 832.491 162.509C743.481 292.458 683.821 531.444 320.314 472.988Z" stroke="#EFF0F1" stroke-width="2" stroke-miterlimit="10"/>
<path d="M298.391 463.532C2.95159 414.004 6.48926 1070.74 183.395 1290.01C408.583 1568.57 891.433 1111.46 1110.77 1242.55C1200.56 1296.23 1180.23 909.034 1122.23 564.105C1065.46 223.704 964.501 -68.1807 828.169 134.228C734.071 272.769 677.6 527.717 298.391 463.532Z" stroke="#EFF0F1" stroke-width="2" stroke-miterlimit="10"/>
<path d="M276.467 454.077C-30.8303 399.853 -25.1962 1084.24 159.615 1311.45C395.023 1600.77 893.595 1119.3 1122.76 1259.02C1216.35 1316.13 1204.19 911.983 1141.95 552.481C1080.83 198.265 967.144 -108.949 823.846 105.821C724.988 253.437 671.421 524.095 276.467 454.077Z" stroke="#EFF0F1" stroke-width="2" stroke-miterlimit="10"/>
<path d="M819.5 77.4981C715.903 234.085 665.131 520.284 254.542 444.643C-64.6351 385.829 -56.7517 1097.67 135.811 1332.89C381.462 1632.92 895.757 1127.13 1134.75 1275.63C1328.01 1395.75 1122.45 -380.449 819.5 77.4981Z" stroke="#EFF0F1" stroke-width="2" stroke-miterlimit="10"/>
</svg>
