<svg width="27" height="27" viewBox="0 0 27 27" fill="none" xmlns="http://www.w3.org/2000/svg">
<path d="M16.2335 21.1723C16.0198 21.1723 15.806 21.0935 15.6373 20.9248C15.311 20.5985 15.311 20.0585 15.6373 19.7323L21.8698 13.4998L15.6373 7.26727C15.311 6.94102 15.311 6.40102 15.6373 6.07477C15.9635 5.74852 16.5035 5.74852 16.8298 6.07477L23.6585 12.9035C23.9848 13.2298 23.9848 13.7698 23.6585 14.096L16.8298 20.9248C16.661 21.0935 16.4473 21.1723 16.2335 21.1723Z" fill="#292D32"/>
<path d="M22.8712 14.3438H3.9375C3.47625 14.3438 3.09375 13.9612 3.09375 13.5C3.09375 13.0388 3.47625 12.6562 3.9375 12.6562H22.8712C23.3325 12.6562 23.715 13.0388 23.715 13.5C23.715 13.9612 23.3325 14.3438 22.8712 14.3438Z" fill="#292D32"/>
</svg>
