<svg width="50" height="51" viewBox="0 0 50 51" fill="none" xmlns="http://www.w3.org/2000/svg">
<path d="M24.9971 50.5C24.9273 50.5 24.8459 50.4767 24.7878 50.4186L0.081386 25.7122C0.0232532 25.6541 0 25.5843 0 25.5029C0 25.4215 0.0348798 25.3518 0.081386 25.2936L24.7878 0.587199C24.9041 0.470934 25.0901 0.470934 25.1947 0.587199L49.9012 25.2936C49.9593 25.3518 49.9826 25.4215 49.9826 25.5029C49.9826 25.5843 49.9477 25.6541 49.9012 25.7122L25.2064 50.4186C25.1482 50.4767 25.0669 50.5 24.9971 50.5ZM0.697593 25.5029L24.9971 49.8024L49.2966 25.5029L24.9971 1.20341L0.697593 25.5029Z" fill="white"/>
<path d="M24.9976 46.0118C24.9279 46.0118 24.8465 45.9885 24.7883 45.9304L4.58139 25.7118C4.52325 25.6537 4.5 25.5839 4.5 25.5025C4.5 25.4211 4.53488 25.3514 4.58139 25.2932L24.7883 5.08629C24.893 4.98165 25.0906 4.98165 25.1953 5.08629L45.4138 25.3049C45.5301 25.4211 45.5301 25.6072 45.4138 25.7118L25.2069 45.9188C25.1488 45.9769 25.0674 46.0118 24.9976 46.0118ZM5.19759 25.5025L24.9976 45.3025L44.7976 25.5025L24.9976 5.7025L5.19759 25.5025Z" fill="white"/>
<path d="M24.998 41.5127C24.9283 41.5127 24.8469 41.4895 24.7888 41.4313L9.06967 25.7122C9.01153 25.6541 8.98828 25.5843 8.98828 25.503C8.98828 25.4216 9.02316 25.3518 9.06967 25.2937L24.7888 9.57457C24.8934 9.46993 25.0911 9.46993 25.1957 9.57457L40.9264 25.2937C41.0427 25.4099 41.0427 25.596 40.9264 25.7006L25.2073 41.4313C25.1492 41.4895 25.0678 41.5127 24.998 41.5127ZM9.68587 25.503L24.998 40.8151L40.3102 25.503L24.998 10.1908L9.68587 25.503Z" fill="white"/>
<path d="M24.9965 37.0244C24.9267 37.0244 24.8453 37.0012 24.7872 36.943L13.5559 25.7118C13.4397 25.5955 13.4397 25.4095 13.5559 25.3048L24.7872 14.0736C24.8918 13.969 25.0895 13.969 25.1941 14.0736L36.4254 25.3048C36.5416 25.4211 36.5416 25.6071 36.4254 25.7118L25.1941 36.943C25.1476 36.9895 25.0662 37.0244 24.9965 37.0244ZM14.1838 25.5025L24.9965 36.3152L35.8092 25.5025L24.9965 14.6898L14.1838 25.5025Z" fill="white"/>
<path d="M24.997 32.5253C24.9273 32.5253 24.8459 32.502 24.7878 32.4439L18.056 25.7121C17.9979 25.654 17.9746 25.5842 17.9746 25.5029C17.9746 25.4215 18.0095 25.3517 18.056 25.2936L24.7878 18.5618C24.904 18.4455 25.0901 18.4455 25.1947 18.5618L31.9265 25.2936C31.9846 25.3517 32.0079 25.4215 32.0079 25.5029C32.0079 25.5842 31.973 25.654 31.9265 25.7121L25.1947 32.4439C25.1482 32.502 25.0668 32.5253 24.997 32.5253ZM18.6722 25.5029L24.997 31.8277L31.3219 25.5029L24.997 19.178L18.6722 25.5029Z" fill="white"/>
</svg>
