<svg width="50" height="51" viewBox="0 0 50 51" fill="none" xmlns="http://www.w3.org/2000/svg">
<path d="M50 25.2402C50 25.1536 50 25.067 50 24.9805C50 23.026 49.7279 21.121 49.2207 19.3273C46.4621 8.51583 36.6403 0.5 25 0.5C11.2197 0.5 0 11.7197 0 25.5C0 39.2803 11.2073 50.5 25 50.5C38.4092 50.5 49.3815 39.8864 49.9753 26.6257C49.9876 26.5267 49.9876 26.4401 49.9876 26.3412C50 26.1804 50 26.0195 50 25.8587C50 25.8216 50 25.7845 50 25.7474C50 25.6732 50 25.599 50 25.5247C50 25.4134 50 25.3268 50 25.2402ZM49.3691 25.5866C49.3568 26.069 49.3196 26.5515 49.2702 27.0339C48.7135 30.2501 45.8931 32.7118 42.5161 32.7118C38.7308 32.7118 35.663 29.6316 35.663 25.8587C35.663 22.0858 38.7432 19.0057 42.5161 19.0057C46.1405 19.0057 49.1217 21.8384 49.3568 25.401C49.3691 25.4505 49.3691 25.5124 49.3691 25.5866ZM42.5285 18.3748C38.4092 18.3748 35.0569 21.7271 35.0569 25.8464C35.0569 29.9656 38.4092 33.3179 42.5285 33.3179C44.8664 33.3179 46.957 32.2417 48.33 30.547C46.5611 34.3323 42.714 36.9547 38.2608 36.9547C32.1376 36.9547 27.1524 31.9696 27.1524 25.8464C27.1524 19.7232 32.1376 14.738 38.2608 14.738C42.7016 14.738 46.5487 17.3605 48.33 21.1457C46.957 19.451 44.8664 18.3748 42.5285 18.3748ZM38.2608 14.1195C31.7912 14.1195 26.5339 19.3768 26.5339 25.8464C26.5339 32.3159 31.7912 37.5732 38.2608 37.5732C41.8481 37.5732 45.0767 35.9527 47.2291 33.3921C44.52 37.9938 39.4978 41.0987 33.7828 41.0987C25.1856 41.0987 18.1841 34.0972 18.1841 25.5C18.1841 16.9028 25.1856 9.90129 33.7828 9.90129C40.3513 9.90129 45.9921 13.9834 48.2806 19.7479C46.2147 16.3709 42.5037 14.1195 38.2608 14.1195ZM33.7828 9.28278C24.8392 9.28278 17.5656 16.5564 17.5656 25.5C17.5656 34.4436 24.8392 41.7172 33.7828 41.7172C38.6319 41.7172 42.9738 39.5772 45.955 36.2001C42.3305 41.5811 36.1826 45.1314 29.2182 45.1314C18.0975 45.1314 9.05492 36.0888 9.05492 24.9681C9.05492 13.8474 18.0975 4.8048 29.2182 4.8048C37.8402 4.8048 45.2251 10.2476 48.095 17.88C45.3612 12.7712 39.9678 9.28278 33.7828 9.28278ZM25 49.8815C11.5537 49.8815 0.618506 38.9463 0.618506 25.5C0.618506 12.0537 11.5537 1.11851 25 1.11851C32.9911 1.11851 40.0915 4.97798 44.5324 10.928C40.7348 6.78402 35.2672 4.18629 29.2182 4.18629C17.7511 4.18629 8.43642 13.5134 8.43642 24.9681C8.43642 36.4228 17.7635 45.7499 29.2182 45.7499C37.1475 45.7499 44.05 41.2843 47.5507 34.7528C43.9015 43.6222 35.1682 49.8815 25 49.8815Z" fill="white"/>
</svg>
