<svg width="25" height="24" viewBox="0 0 25 24" fill="none" xmlns="http://www.w3.org/2000/svg">
    <path opacity="0.4" d="M9.17188 7.2V16.79C9.17188 20 11.1719 22 14.3719 22H16.9619C20.1619 22 22.1619 20 22.1619 16.8V7.2C22.1719 4 20.1719 2 16.9719 2H14.3719C11.1719 2 9.17188 4 9.17188 7.2Z" fill="#111110"/>
    <path d="M12.6019 8.12002L15.9519 11.47C16.2419 11.76 16.2419 12.24 15.9519 12.53L12.6019 15.88C12.3119 16.17 11.8319 16.17 11.5419 15.88C11.2519 15.59 11.2519 15.11 11.5419 14.82L13.6119 12.75H2.92188C2.51188 12.75 2.17188 12.41 2.17188 12C2.17188 11.59 2.51188 11.25 2.92188 11.25H13.6119L11.5419 9.18002C11.3919 9.03002 11.3219 8.84002 11.3219 8.65002C11.3219 8.46002 11.3919 8.27002 11.5419 8.12002C11.8319 7.82002 12.3019 7.82002 12.6019 8.12002Z" fill="#111110"/>
    </svg>
    