<svg width="65" height="36" viewBox="0 0 65 36" fill="none" xmlns="http://www.w3.org/2000/svg">
    <g clip-path="url(#clip0_2530_2080)">
    <path d="M4.16391 3.68072H0V0.904785H11.5256V3.68072H7.36172V15.8476H4.15969V3.68072H4.16391Z" fill="#111110"/>
    <path d="M15.1582 0.904785H27.6879V3.72291C27.6879 6.05166 26.8779 7.90792 25.2326 9.01745C27.0677 10.4476 27.9452 12.6878 27.9452 15.1642V15.8476H24.7432V15.2275C24.7432 12.73 23.3974 10.2324 20.1321 10.2324H18.3602V15.8476H15.1582V0.904785ZM20.516 7.45651C23.292 7.45651 24.4859 5.96307 24.4859 4.01823V3.67651H18.3602V7.45651H20.516Z" fill="#111110"/>
    <path d="M43.3552 15.8479V10.8107L37.3351 15.8479H31.5723V8.31323C31.5723 3.55447 33.9854 0.584473 39.0648 0.584473C44.1442 0.584473 46.5573 3.55026 46.5573 8.31323V15.8479H43.3552ZM36.1412 13.072L43.2709 7.1151C42.9502 4.81166 41.672 3.46588 39.0648 3.46588C36.0315 3.46588 34.7743 5.30104 34.7743 8.35542V13.072H36.1412Z" fill="#111110"/>
    <path d="M60.9703 15.8476V8.50276C60.9703 5.55807 59.6245 3.67651 56.3592 3.67651H53.6044V15.8434H50.4023V0.904785H56.3592C61.6538 0.904785 64.1724 3.80729 64.1724 8.46057V15.8476H60.9703Z" fill="#111110"/>
    <path d="M14.175 20.4717V21.2395C14.175 23.9943 13.2975 26.1501 11.4834 27.4284C13.597 28.9851 14.6222 31.6767 14.6222 34.6425V35.4103H11.4202V34.6847C11.4202 31.8876 10.2263 29.0906 7.32376 28.8164C4.42125 29.0948 3.20203 31.8918 3.20203 34.6847V35.4103H0V34.6425C0 31.6767 1.02516 28.9851 3.13875 27.4284C1.32469 26.1459 0.447188 23.9901 0.447188 21.2395V20.4717H3.64922V21.1973C3.64922 23.9732 4.84313 25.8084 7.27735 25.9982C9.77485 25.8042 10.9688 23.969 10.9688 21.1973V20.4717H14.1708H14.175Z" fill="#111110"/>
    <path d="M17.8242 20.4717H25.2956V23.2476H23.1609V32.6386H25.2956V35.4145H17.8242V32.6386H19.9589V23.2476H17.8242V20.4717Z" fill="#111110"/>
    <path d="M32.66 23.2476H28.4961V20.4717H40.0217V23.2476H35.8578V35.4145H32.6558V23.2476H32.66Z" fill="#111110"/>
    <path d="M43.2715 32.6387V35.4146H56.7715V32.6387H43.2715Z" fill="#BFF000"/>
    </g>
    <defs>
    <clipPath id="clip0_2530_2080">
    <rect width="64.1714" height="34.83" fill="white" transform="translate(0 0.584961)"/>
    </clipPath>
    </defs>
    </svg>
    