<svg width="25" height="24" viewBox="0 0 25 24" fill="none" xmlns="http://www.w3.org/2000/svg">
    <path d="M8.17188 22.3199C7.89187 22.3199 7.60186 22.2499 7.34186 22.1099C6.77186 21.8099 6.42188 21.2099 6.42188 20.5699V19.15C3.40188 18.84 1.42188 16.6199 1.42188 13.4399V7.43994C1.42188 3.99994 3.73187 1.68994 7.17188 1.68994H17.1719C20.6119 1.68994 22.9219 3.99994 22.9219 7.43994V13.4399C22.9219 16.8799 20.6119 19.1899 17.1719 19.1899H13.4019L9.14185 22.03C8.85185 22.22 8.51188 22.3199 8.17188 22.3199ZM7.17188 3.17993C4.59188 3.17993 2.92188 4.84993 2.92188 7.42993V13.43C2.92188 16.01 4.59188 17.68 7.17188 17.68C7.58187 17.68 7.92188 18.02 7.92188 18.43V20.56C7.92188 20.69 8.00188 20.75 8.05188 20.78C8.10188 20.81 8.20189 20.84 8.31189 20.77L12.7619 17.81C12.8819 17.73 13.0319 17.68 13.1819 17.68H17.1819C19.7619 17.68 21.4319 16.01 21.4319 13.43V7.42993C21.4319 4.84993 19.7619 3.17993 17.1819 3.17993H7.17188Z" fill="#292D32"/>
    <path d="M12.1717 12.1099C11.7617 12.1099 11.4217 11.7699 11.4217 11.3599V11.1499C11.4217 9.9899 12.2717 9.41989 12.5917 9.19989C12.9617 8.94989 13.0817 8.7799 13.0817 8.5199C13.0817 8.0199 12.6717 7.60986 12.1717 7.60986C11.6717 7.60986 11.2617 8.0199 11.2617 8.5199C11.2617 8.9299 10.9217 9.2699 10.5117 9.2699C10.1017 9.2699 9.76172 8.9299 9.76172 8.5199C9.76172 7.1899 10.8417 6.10986 12.1717 6.10986C13.5017 6.10986 14.5817 7.1899 14.5817 8.5199C14.5817 9.6599 13.7417 10.2299 13.4317 10.4399C13.0417 10.6999 12.9217 10.8699 12.9217 11.1499V11.3599C12.9217 11.7799 12.5817 12.1099 12.1717 12.1099Z" fill="#292D32"/>
    <path d="M12.1719 14.6001C11.7519 14.6001 11.4219 14.2601 11.4219 13.8501C11.4219 13.4401 11.7619 13.1001 12.1719 13.1001C12.5819 13.1001 12.9219 13.4401 12.9219 13.8501C12.9219 14.2601 12.5919 14.6001 12.1719 14.6001Z" fill="#292D32"/>
    </svg>
    